<svg xmlns="http://www.w3.org/2000/svg" width="38" height="24" viewBox="0 0 38 24" fill="none">
<path d="M1 3C1 1.89543 1.89543 1 3 1H35C36.1046 1 37 1.89543 37 3V21C37 22.1046 36.1046 23 35 23H3C1.89543 23 1 22.1046 1 21V3Z" fill="white"/>
<path fill-rule="evenodd" clip-rule="evenodd" d="M3 0H35C36.6569 0 38 1.34315 38 3V21C38 22.6569 36.6569 24 35 24H3C1.34315 24 0 22.6569 0 21V3C0 1.34314 1.34315 0 3 0ZM3 1C1.89543 1 1 1.89543 1 3V21C1 22.1046 1.89543 23 3 23H35C36.1046 23 37 22.1046 37 21V3C37 1.89543 36.1046 1 35 1H3Z" fill="black" fill-opacity="0.07"/>
<path fill-rule="evenodd" clip-rule="evenodd" d="M6.81468 6.5C5.46465 6.5 4.37024 7.59441 4.37024 8.94444V15.0556C4.37024 16.4056 5.46465 17.5 6.81468 17.5H12.9258C14.2758 17.5 15.3702 16.4056 15.3702 15.0556V8.94444C15.3702 7.59442 14.2758 6.5 12.9258 6.5H6.81468ZM12.193 8.35971C11.6608 8.06022 11.1525 7.96417 10.3459 7.92181C9.76366 7.89079 9.11337 7.91346 8.51558 7.98326L8.15047 8.02204L7.98342 8.0459C7.92734 8.05545 7.87723 8.06618 7.82711 8.07931C7.67677 8.11928 7.57177 8.16045 7.42859 8.28514L7.38921 8.32212L7.32478 8.38596C7.26035 8.45516 7.22813 8.51303 7.19591 8.63414L7.16847 8.75466L7.11597 9.01716C7.12432 9.14841 7.12432 9.29099 7.11597 9.4658L7.07779 9.85418L7.0062 10.4627L6.94534 10.8833C6.94534 10.8833 6.87391 11.3686 6.82602 11.6792C6.77926 11.9825 6.70313 12.4553 6.70313 12.4553L6.34466 14.5512H6.34824C6.34824 14.5512 6.11665 16.1516 8.12183 16.0796C8.44053 16.0682 8.69933 16.0033 8.91053 15.9436L9.02746 15.9072L9.13723 15.8673C9.35509 15.7798 9.53995 15.6394 9.67025 15.475C9.72356 15.4078 9.83123 15.4021 9.88059 15.4723C10.1884 15.8661 10.6383 16.1184 11.1979 16.0886C12.5521 16.0164 12.9578 15.7026 13.1583 15.4723C13.4267 15.1651 13.3886 14.8375 13.1583 14.4999L13.0855 14.3883L12.9984 14.2493C12.7729 13.8728 12.5844 13.4493 12.3815 12.8765L12.3266 12.7178L12.4066 12.6528C12.6297 12.4619 12.8206 12.2555 12.9769 12.0234C13.1356 11.7866 13.2537 11.5282 13.3217 11.2556C13.3552 11.1208 13.3766 10.9841 13.3886 10.8338C13.41 10.5987 13.4017 10.3601 13.3659 10.125C13.3217 9.83688 13.2621 9.606 13.144 9.37631C12.9208 8.94437 12.6058 8.59178 12.193 8.35971ZM8.5903 8.87912L8.59029 8.87912L8.59028 8.87912C8.40643 8.89672 8.01206 8.93446 8.01319 8.9706C8.02393 9.14719 8.02154 9.32915 8.01319 9.50634C8.00748 9.65112 7.95005 10.1377 7.9168 10.4195L7.9168 10.4195L7.91679 10.4196L7.91679 10.4196L7.91677 10.4198L7.91673 10.4201C7.90836 10.491 7.90153 10.5489 7.89745 10.585C7.81632 11.144 7.72444 11.7609 7.63614 12.3187C7.55358 12.8393 7.46138 13.3574 7.36907 13.8762L7.33785 14.0518L7.30802 14.2033C7.2579 14.4497 7.20063 14.7313 7.32591 14.9503C7.45836 15.1823 7.79722 15.2104 8.03467 15.1871C8.89615 15.1024 8.96774 14.9288 8.96774 14.9288C8.96774 14.3168 9.03098 13.7619 9.18252 12.79H9.64784C9.7364 12.79 9.81521 12.8462 9.84412 12.9299L10.4366 14.6454C10.4366 14.6454 10.5177 14.8942 10.7229 15.0565C10.8303 15.1412 10.9699 15.2026 11.1501 15.1931C11.823 15.1573 12.3099 15.0105 12.3815 14.9288C11.9278 14.0597 11.5892 13.3997 11.267 12.3587C11.4233 12.268 11.5749 12.1683 11.7168 12.0574C11.9125 11.9052 12.0927 11.7298 12.2323 11.5234C12.3313 11.3749 12.4077 11.212 12.4507 11.0384C12.465 10.9817 12.4757 10.9238 12.4829 10.8654L12.4948 10.758C12.5091 10.5927 12.5032 10.4263 12.4781 10.2628C12.4542 10.1053 12.4184 9.93052 12.3457 9.78853C12.2084 9.52305 12.0163 9.29157 11.7526 9.14301C11.3088 8.89364 10.7969 8.84591 10.2981 8.81966C9.75763 8.79043 9.15746 8.81369 8.61933 8.87634L8.59031 8.87912L8.5903 8.87912ZM9.64997 9.72538C9.4945 11.0707 9.32332 11.8856 9.32332 11.8856L9.45794 11.8862C9.89957 11.8934 10.6562 11.9057 10.8363 10.7843C11.0021 9.74742 10.2982 9.61917 9.64997 9.72538Z" fill="#191C1F"/>
<path d="M19.04 15.5V13.05H20.71C22.12 13.05 23.02 12.09 23.02 10.75C23.02 9.45 22.14 8.5 20.71 8.5H17.87V15.5H19.04ZM19.04 9.55H20.51C21.32 9.55 21.82 9.98 21.82 10.75C21.82 11.56 21.35 11.99 20.51 11.99H19.04V9.55Z" fill="#191C1F"/>
<path d="M25.3267 15.59C26.0167 15.59 26.5467 15.33 26.8467 14.89H26.8867L26.9667 15.5H27.9667V12.06C27.9667 11.04 27.1967 10.25 25.8367 10.25C24.5367 10.25 23.7667 10.98 23.7667 11.96H24.8467C24.8567 11.54 25.1867 11.19 25.8167 11.19C26.5367 11.19 26.8367 11.59 26.8367 12.07V12.55C26.5667 12.47 26.1067 12.38 25.6367 12.38C24.1567 12.38 23.5267 13.08 23.5267 13.98C23.5267 14.89 24.1867 15.59 25.3267 15.59ZM25.5867 14.68C24.9667 14.68 24.6667 14.36 24.6667 13.94C24.6667 13.48 25.0267 13.2 25.7167 13.2C26.0967 13.2 26.4567 13.25 26.8367 13.38V13.55C26.8367 14.16 26.3467 14.68 25.5867 14.68Z" fill="#191C1F"/>
<path d="M30.7685 17.79L33.5085 10.44V10.34H32.2985L30.9585 14.22H30.9185L29.5785 10.34H28.3885V10.44L30.2685 15.47L30.3885 15.48L29.5685 17.69V17.79H30.7685Z" fill="#191C1F"/>
</svg>