<svg width="37" height="24" viewBox="0 0 37 24" fill="none"
    xmlns="http://www.w3.org/2000/svg">
    <rect width="37" height="23.4516" rx="3" fill="white"/>
    <g clip-path="url(#clip0_4275_153646)">
        <path fill-rule="evenodd" clip-rule="evenodd" d="M7.72935 15.3055L5.9902 12.2167C7.0902 11.8098 7.63516 11.0997 7.63516 10.0667C7.6366 8.80361 6.64876 8 5.07497 8H2V15.3055H3.3581V12.3417H4.50843L6.17641 15.3055H7.72935ZM5.07497 9.21052C5.87732 9.21052 6.2785 9.53416 6.2785 10.1705C6.2785 10.8068 5.8766 11.1304 5.07497 11.1304H3.3581V9.21052H5.07497ZM25.7657 15.3055V8H24.4716V15.3055H25.7657ZM22.9877 10.7133C22.442 10.2231 21.7835 9.98271 21.0228 9.98271C20.3042 9.96787 19.6065 10.2287 19.0687 10.7133C18.523 11.1932 18.2484 11.8617 18.2484 12.7172C18.2484 13.5726 18.5259 14.2411 19.0716 14.732C19.6122 15.2086 20.3072 15.4649 21.0228 15.4516C21.7835 15.4516 22.442 15.212 22.9877 14.732C23.5435 14.2411 23.821 13.5734 23.821 12.7172C23.821 11.861 23.5435 11.1932 22.9877 10.7133ZM19.9947 13.813C19.7071 13.532 19.5633 13.1667 19.5633 12.7172C19.5633 12.2686 19.7071 11.9033 19.9947 11.6323C20.1298 11.4963 20.2905 11.3892 20.4671 11.3174C20.6437 11.2457 20.8326 11.2106 21.0228 11.2144C21.2141 11.2109 21.4042 11.246 21.5821 11.3178C21.7599 11.3895 21.922 11.4964 22.0588 11.6323C22.3572 11.9033 22.501 12.2686 22.501 12.7172C22.501 13.1657 22.3572 13.5317 22.0588 13.813C21.7783 14.0811 21.4057 14.2272 21.0207 14.2199C20.6394 14.2261 20.271 14.08 19.9947 13.813ZM29.9493 12.9867V10.1288H31.2463V13.2059C31.2463 14.374 30.5065 15.4516 28.8918 15.4516H28.8817C27.2569 15.4516 26.5163 14.3974 26.5163 13.2059V10.1288H27.8162V12.9867C27.8162 13.6756 28.1742 14.1315 28.8839 14.1315C29.582 14.1315 29.9493 13.6749 29.9493 12.9867ZM16.8665 10.1288L15.5724 13.6355L14.2783 10.1288H12.8965L14.9642 15.3055H16.1785L18.2484 10.1288H16.8665ZM12.2034 10.7133C12.6664 11.2042 12.9022 11.82 12.9022 12.5711V13.0306H8.97386C9.05582 13.8239 9.60151 14.3244 10.3729 14.3244C10.9999 14.3244 11.4629 14.0117 11.7814 13.3747L12.7484 13.9386C12.2652 14.9512 11.4737 15.4516 10.3521 15.4516C10.0072 15.459 9.66432 15.3953 9.34428 15.2643C9.02424 15.1334 8.73363 14.9379 8.49 14.6897C7.98601 14.1783 7.72863 13.5208 7.72863 12.7172C7.72863 11.9136 7.9853 11.267 8.50007 10.7556C8.75277 10.5044 9.05209 10.3067 9.38064 10.174C9.7092 10.0413 10.0604 9.97627 10.4139 9.98272C11.1444 9.98272 11.7404 10.2223 12.2034 10.7133ZM11.7088 12.0699C11.5858 11.4022 11.102 10.985 10.3715 10.985C9.70288 10.985 9.1687 11.4548 8.97386 12.0699H11.7088ZM32.378 15.0023C32.6612 15.29 33.0452 15.4516 33.4456 15.4516H34.3422V14.2827H33.6742C33.616 14.2828 33.5584 14.2713 33.5045 14.2487C33.4507 14.2261 33.4018 14.193 33.3606 14.1512C33.3194 14.1094 33.2867 14.0597 33.2644 14.0051C33.2421 13.9504 33.2306 13.8919 33.2306 13.8327V11.1954H34.3414V10.131H33.2299V8.73055H31.9358V13.9175C31.9358 14.3243 32.0949 14.7146 32.378 15.0023Z" fill="#191C1F"/>
    </g>
    <rect x="0.5" y="0.5" width="36" height="22.4516" rx="2.5" stroke="black" stroke-opacity="0.07"/>
    <defs>
        <clipPath id="clip0_4275_153646">
            <rect width="33" height="7.45161" fill="white" transform="translate(2 8)"/>
        </clipPath>
    </defs>
</svg>
