<svg width="38" height="24" viewBox="0 0 38 24" fill="none"
    xmlns="http://www.w3.org/2000/svg">
    <rect width="38" height="24" rx="3" fill="#fff"/>
    <path d="M16.354 7.467l-1.45 9.062h2.32l1.45-9.062h-2.32zm7.017 3.689c-.814-.401-1.311-.672-1.311-1.088.01-.373.421-.755 1.34-.755a4.048 4.048 0 011.732.336l.212.094.316-1.894a5.872 5.872 0 00-2.088-.374c-2.296 0-3.915 1.194-3.924 2.9-.02 1.26 1.157 1.96 2.04 2.38.9.431 1.208.71 1.208 1.088-.01.588-.725.858-1.397.858a4.73 4.73 0 01-2.184-.466l-.306-.14-.326 1.97a7.263 7.263 0 002.595.468c2.442 0 4.03-1.177 4.05-2.997.004-.99-.616-1.755-1.957-2.38zm8.253-3.661h-1.801a1.153 1.153 0 00-1.217.725l-3.456 8.3h2.443l.671-1.797h2.732l.35 1.804h2.153l-1.876-9.032zm-2.682 5.418c.047 0 .938-2.934.938-2.934l.708 2.934h-1.646zM12.953 7.467l-2.278 6.154-.248-1.208a6.767 6.767 0 00-3.218-3.677l2.087 7.785h2.461l3.658-9.047h-2.461v-.007z" fill="#1A1F71"/>
    <path d="M9.66 8.634a1.52 1.52 0 00-1.512-1.166h-3.61l-.038.168a8.86 8.86 0 015.946 4.833l-.785-3.835z" fill="#F7B60F"/>
    <rect x=".5" y=".5" width="37" height="23" rx="2.5" stroke="#000" stroke-opacity=".07"/>
</svg>